<?xml version="1.0" standalone="no"?>
<svg xmlns:xlink="http://www.w3.org/1999/xlink" id="wave" style="transform:rotate(0deg); transition: 0.3s" viewBox="0 0 1440 280" version="1.1" xmlns="http://www.w3.org/2000/svg"><defs><linearGradient id="sw-gradient-0" x1="0" x2="0" y1="1" y2="0"><stop stop-color="rgba(243, 106, 62, 1)" offset="0%"/><stop stop-color="rgba(255, 179, 11, 1)" offset="100%"/></linearGradient></defs><path style="transform:translate(0, 0px); opacity:1" fill="url(#sw-gradient-0)" d="M0,196L34.3,205.3C68.6,215,137,233,206,228.7C274.3,224,343,196,411,182C480,168,549,168,617,149.3C685.7,131,754,93,823,98C891.4,103,960,149,1029,154C1097.1,159,1166,121,1234,130.7C1302.9,140,1371,196,1440,200.7C1508.6,205,1577,159,1646,116.7C1714.3,75,1783,37,1851,28C1920,19,1989,37,2057,56C2125.7,75,2194,93,2263,88.7C2331.4,84,2400,56,2469,46.7C2537.1,37,2606,47,2674,84C2742.9,121,2811,187,2880,191.3C2948.6,196,3017,140,3086,116.7C3154.3,93,3223,103,3291,93.3C3360,84,3429,56,3497,56C3565.7,56,3634,84,3703,102.7C3771.4,121,3840,131,3909,116.7C3977.1,103,4046,65,4114,74.7C4182.9,84,4251,140,4320,154C4388.6,168,4457,140,4526,116.7C4594.3,93,4663,75,4731,88.7C4800,103,4869,149,4903,172.7L4937.1,196L4937.1,280L4902.9,280C4868.6,280,4800,280,4731,280C4662.9,280,4594,280,4526,280C4457.1,280,4389,280,4320,280C4251.4,280,4183,280,4114,280C4045.7,280,3977,280,3909,280C3840,280,3771,280,3703,280C3634.3,280,3566,280,3497,280C3428.6,280,3360,280,3291,280C3222.9,280,3154,280,3086,280C3017.1,280,2949,280,2880,280C2811.4,280,2743,280,2674,280C2605.7,280,2537,280,2469,280C2400,280,2331,280,2263,280C2194.3,280,2126,280,2057,280C1988.6,280,1920,280,1851,280C1782.9,280,1714,280,1646,280C1577.1,280,1509,280,1440,280C1371.4,280,1303,280,1234,280C1165.7,280,1097,280,1029,280C960,280,891,280,823,280C754.3,280,686,280,617,280C548.6,280,480,280,411,280C342.9,280,274,280,206,280C137.1,280,69,280,34,280L0,280Z"/><defs><linearGradient id="sw-gradient-1" x1="0" x2="0" y1="1" y2="0"><stop stop-color="rgba(243, 106, 62, 1)" offset="0%"/><stop stop-color="rgba(255, 179, 11, 1)" offset="100%"/></linearGradient></defs><path style="transform:translate(0, 50px); opacity:0.9" fill="url(#sw-gradient-1)" d="M0,196L34.3,205.3C68.6,215,137,233,206,233.3C274.3,233,343,215,411,196C480,177,549,159,617,149.3C685.7,140,754,140,823,140C891.4,140,960,140,1029,130.7C1097.1,121,1166,103,1234,93.3C1302.9,84,1371,84,1440,74.7C1508.6,65,1577,47,1646,42C1714.3,37,1783,47,1851,70C1920,93,1989,131,2057,149.3C2125.7,168,2194,168,2263,158.7C2331.4,149,2400,131,2469,112C2537.1,93,2606,75,2674,70C2742.9,65,2811,75,2880,65.3C2948.6,56,3017,28,3086,37.3C3154.3,47,3223,93,3291,98C3360,103,3429,65,3497,42C3565.7,19,3634,9,3703,4.7C3771.4,0,3840,0,3909,0C3977.1,0,4046,0,4114,37.3C4182.9,75,4251,149,4320,168C4388.6,187,4457,149,4526,130.7C4594.3,112,4663,112,4731,130.7C4800,149,4869,187,4903,205.3L4937.1,224L4937.1,280L4902.9,280C4868.6,280,4800,280,4731,280C4662.9,280,4594,280,4526,280C4457.1,280,4389,280,4320,280C4251.4,280,4183,280,4114,280C4045.7,280,3977,280,3909,280C3840,280,3771,280,3703,280C3634.3,280,3566,280,3497,280C3428.6,280,3360,280,3291,280C3222.9,280,3154,280,3086,280C3017.1,280,2949,280,2880,280C2811.4,280,2743,280,2674,280C2605.7,280,2537,280,2469,280C2400,280,2331,280,2263,280C2194.3,280,2126,280,2057,280C1988.6,280,1920,280,1851,280C1782.9,280,1714,280,1646,280C1577.1,280,1509,280,1440,280C1371.4,280,1303,280,1234,280C1165.7,280,1097,280,1029,280C960,280,891,280,823,280C754.3,280,686,280,617,280C548.6,280,480,280,411,280C342.9,280,274,280,206,280C137.1,280,69,280,34,280L0,280Z"/><defs><linearGradient id="sw-gradient-2" x1="0" x2="0" y1="1" y2="0"><stop stop-color="rgba(243, 106, 62, 1)" offset="0%"/><stop stop-color="rgba(255, 179, 11, 1)" offset="100%"/></linearGradient></defs><path style="transform:translate(0, 100px); opacity:0.8" fill="url(#sw-gradient-2)" d="M0,0L34.3,9.3C68.6,19,137,37,206,65.3C274.3,93,343,131,411,140C480,149,549,131,617,144.7C685.7,159,754,205,823,196C891.4,187,960,121,1029,121.3C1097.1,121,1166,187,1234,200.7C1302.9,215,1371,177,1440,140C1508.6,103,1577,65,1646,74.7C1714.3,84,1783,140,1851,154C1920,168,1989,140,2057,107.3C2125.7,75,2194,37,2263,32.7C2331.4,28,2400,56,2469,88.7C2537.1,121,2606,159,2674,154C2742.9,149,2811,103,2880,70C2948.6,37,3017,19,3086,37.3C3154.3,56,3223,112,3291,135.3C3360,159,3429,149,3497,163.3C3565.7,177,3634,215,3703,233.3C3771.4,252,3840,252,3909,228.7C3977.1,205,4046,159,4114,135.3C4182.9,112,4251,112,4320,112C4388.6,112,4457,112,4526,126C4594.3,140,4663,168,4731,149.3C4800,131,4869,65,4903,32.7L4937.1,0L4937.1,280L4902.9,280C4868.6,280,4800,280,4731,280C4662.9,280,4594,280,4526,280C4457.1,280,4389,280,4320,280C4251.4,280,4183,280,4114,280C4045.7,280,3977,280,3909,280C3840,280,3771,280,3703,280C3634.3,280,3566,280,3497,280C3428.6,280,3360,280,3291,280C3222.9,280,3154,280,3086,280C3017.1,280,2949,280,2880,280C2811.4,280,2743,280,2674,280C2605.7,280,2537,280,2469,280C2400,280,2331,280,2263,280C2194.3,280,2126,280,2057,280C1988.6,280,1920,280,1851,280C1782.9,280,1714,280,1646,280C1577.1,280,1509,280,1440,280C1371.4,280,1303,280,1234,280C1165.7,280,1097,280,1029,280C960,280,891,280,823,280C754.3,280,686,280,617,280C548.6,280,480,280,411,280C342.9,280,274,280,206,280C137.1,280,69,280,34,280L0,280Z"/><defs><linearGradient id="sw-gradient-3" x1="0" x2="0" y1="1" y2="0"><stop stop-color="rgba(243, 106, 62, 1)" offset="0%"/><stop stop-color="rgba(255, 179, 11, 1)" offset="100%"/></linearGradient></defs><path style="transform:translate(0, 150px); opacity:0.7" fill="url(#sw-gradient-3)" d="M0,168L34.3,168C68.6,168,137,168,206,168C274.3,168,343,168,411,149.3C480,131,549,93,617,84C685.7,75,754,93,823,107.3C891.4,121,960,131,1029,112C1097.1,93,1166,47,1234,56C1302.9,65,1371,131,1440,163.3C1508.6,196,1577,196,1646,163.3C1714.3,131,1783,65,1851,32.7C1920,0,1989,0,2057,42C2125.7,84,2194,168,2263,196C2331.4,224,2400,196,2469,186.7C2537.1,177,2606,187,2674,182C2742.9,177,2811,159,2880,140C2948.6,121,3017,103,3086,93.3C3154.3,84,3223,84,3291,84C3360,84,3429,84,3497,93.3C3565.7,103,3634,121,3703,130.7C3771.4,140,3840,140,3909,126C3977.1,112,4046,84,4114,70C4182.9,56,4251,56,4320,79.3C4388.6,103,4457,149,4526,144.7C4594.3,140,4663,84,4731,65.3C4800,47,4869,65,4903,74.7L4937.1,84L4937.1,280L4902.9,280C4868.6,280,4800,280,4731,280C4662.9,280,4594,280,4526,280C4457.1,280,4389,280,4320,280C4251.4,280,4183,280,4114,280C4045.7,280,3977,280,3909,280C3840,280,3771,280,3703,280C3634.3,280,3566,280,3497,280C3428.6,280,3360,280,3291,280C3222.9,280,3154,280,3086,280C3017.1,280,2949,280,2880,280C2811.4,280,2743,280,2674,280C2605.7,280,2537,280,2469,280C2400,280,2331,280,2263,280C2194.3,280,2126,280,2057,280C1988.6,280,1920,280,1851,280C1782.9,280,1714,280,1646,280C1577.1,280,1509,280,1440,280C1371.4,280,1303,280,1234,280C1165.7,280,1097,280,1029,280C960,280,891,280,823,280C754.3,280,686,280,617,280C548.6,280,480,280,411,280C342.9,280,274,280,206,280C137.1,280,69,280,34,280L0,280Z"/></svg>